<mxfile host="app.diagrams.net" modified="2023-06-05T00:04:17.014Z" agent="Mozilla/5.0 (Windows NT 10.0; Win64; x64) AppleWebKit/537.36 (KHTML, like Gecko) Chrome/114.0.0.0 Safari/537.36" etag="p97oJRehuiDukVwDyHvK" version="21.3.5" type="device">
  <diagram name="PÃ¡gina-1" id="qFv1Y2PDAz0HALoaYERS">
    <mxGraphModel dx="2048" dy="1805" grid="1" gridSize="10" guides="1" tooltips="1" connect="1" arrows="1" fold="1" page="1" pageScale="1" pageWidth="827" pageHeight="1169" math="0" shadow="0">
      <root>
        <mxCell id="0" />
        <mxCell id="1" parent="0" />
        <mxCell id="6FPqPUj_sBxvCww17C0S-24" value="" style="rounded=0;whiteSpace=wrap;html=1;fillColor=none;strokeColor=#b85450;" parent="1" vertex="1">
          <mxGeometry x="130" y="120" width="570" height="90" as="geometry" />
        </mxCell>
        <mxCell id="6FPqPUj_sBxvCww17C0S-25" value="" style="rounded=0;whiteSpace=wrap;html=1;fillColor=none;strokeColor=#1b37c0;" parent="1" vertex="1">
          <mxGeometry x="-110" y="110" width="400" height="300" as="geometry" />
        </mxCell>
        <mxCell id="k91mETmsHKKL200AIrwe-1" value="Persona" style="rounded=0;whiteSpace=wrap;html=1;" parent="1" vertex="1">
          <mxGeometry x="141" y="132" width="120" height="60" as="geometry" />
        </mxCell>
        <mxCell id="k91mETmsHKKL200AIrwe-2" value="Habilidades" style="rounded=0;whiteSpace=wrap;html=1;" parent="1" vertex="1">
          <mxGeometry x="541" y="132" width="120" height="60" as="geometry" />
        </mxCell>
        <mxCell id="k91mETmsHKKL200AIrwe-3" value="" style="endArrow=none;html=1;rounded=0;exitX=1;exitY=0.5;exitDx=0;exitDy=0;entryX=0;entryY=0.5;entryDx=0;entryDy=0;" parent="1" source="k91mETmsHKKL200AIrwe-1" target="k91mETmsHKKL200AIrwe-4" edge="1">
          <mxGeometry width="50" height="50" relative="1" as="geometry">
            <mxPoint x="311" y="212" as="sourcePoint" />
            <mxPoint x="361" y="162" as="targetPoint" />
            <Array as="points" />
          </mxGeometry>
        </mxCell>
        <mxCell id="k91mETmsHKKL200AIrwe-4" value="Tiene" style="rhombus;whiteSpace=wrap;html=1;" parent="1" vertex="1">
          <mxGeometry x="371" y="132" width="60" height="60" as="geometry" />
        </mxCell>
        <mxCell id="k91mETmsHKKL200AIrwe-5" value="" style="endArrow=none;html=1;rounded=0;entryX=0;entryY=0.5;entryDx=0;entryDy=0;exitX=1;exitY=0.5;exitDx=0;exitDy=0;" parent="1" source="k91mETmsHKKL200AIrwe-4" target="k91mETmsHKKL200AIrwe-2" edge="1">
          <mxGeometry width="50" height="50" relative="1" as="geometry">
            <mxPoint x="331" y="242" as="sourcePoint" />
            <mxPoint x="381" y="192" as="targetPoint" />
          </mxGeometry>
        </mxCell>
        <mxCell id="k91mETmsHKKL200AIrwe-6" value="Amigo" style="rhombus;whiteSpace=wrap;html=1;" parent="1" vertex="1">
          <mxGeometry x="261" width="60" height="60" as="geometry" />
        </mxCell>
        <mxCell id="6FPqPUj_sBxvCww17C0S-1" value="Direccion" style="rounded=0;whiteSpace=wrap;html=1;" parent="1" vertex="1">
          <mxGeometry x="110.5" y="-110" width="120" height="60" as="geometry" />
        </mxCell>
        <mxCell id="6FPqPUj_sBxvCww17C0S-2" value="Barrio" style="rounded=0;whiteSpace=wrap;html=1;" parent="1" vertex="1">
          <mxGeometry x="510" y="-110" width="120" height="60" as="geometry" />
        </mxCell>
        <mxCell id="6FPqPUj_sBxvCww17C0S-3" value="Esta" style="rhombus;whiteSpace=wrap;html=1;" parent="1" vertex="1">
          <mxGeometry x="360" y="-110" width="60" height="60" as="geometry" />
        </mxCell>
        <mxCell id="6FPqPUj_sBxvCww17C0S-4" value="" style="endArrow=none;html=1;rounded=0;entryX=1;entryY=0.5;entryDx=0;entryDy=0;" parent="1" source="6FPqPUj_sBxvCww17C0S-3" target="6FPqPUj_sBxvCww17C0S-1" edge="1">
          <mxGeometry width="50" height="50" relative="1" as="geometry">
            <mxPoint x="250" y="20" as="sourcePoint" />
            <mxPoint x="300" y="-30" as="targetPoint" />
          </mxGeometry>
        </mxCell>
        <mxCell id="6FPqPUj_sBxvCww17C0S-5" value="" style="endArrow=none;html=1;rounded=0;exitX=0;exitY=0.5;exitDx=0;exitDy=0;" parent="1" source="6FPqPUj_sBxvCww17C0S-2" target="6FPqPUj_sBxvCww17C0S-3" edge="1">
          <mxGeometry width="50" height="50" relative="1" as="geometry">
            <mxPoint x="370" y="70" as="sourcePoint" />
            <mxPoint x="420" y="20" as="targetPoint" />
          </mxGeometry>
        </mxCell>
        <mxCell id="6FPqPUj_sBxvCww17C0S-6" value="Tiene" style="rhombus;whiteSpace=wrap;html=1;" parent="1" vertex="1">
          <mxGeometry x="145" width="51" height="50" as="geometry" />
        </mxCell>
        <mxCell id="6FPqPUj_sBxvCww17C0S-7" value="" style="endArrow=none;html=1;rounded=0;exitX=0.5;exitY=1;exitDx=0;exitDy=0;" parent="1" source="6FPqPUj_sBxvCww17C0S-1" target="6FPqPUj_sBxvCww17C0S-6" edge="1">
          <mxGeometry width="50" height="50" relative="1" as="geometry">
            <mxPoint x="290" y="90" as="sourcePoint" />
            <mxPoint x="340" y="40" as="targetPoint" />
          </mxGeometry>
        </mxCell>
        <mxCell id="6FPqPUj_sBxvCww17C0S-8" value="" style="endArrow=none;html=1;rounded=0;entryX=0.5;entryY=1;entryDx=0;entryDy=0;exitX=0.25;exitY=0;exitDx=0;exitDy=0;" parent="1" source="k91mETmsHKKL200AIrwe-1" target="6FPqPUj_sBxvCww17C0S-6" edge="1">
          <mxGeometry width="50" height="50" relative="1" as="geometry">
            <mxPoint x="240" y="150" as="sourcePoint" />
            <mxPoint x="290" y="100" as="targetPoint" />
          </mxGeometry>
        </mxCell>
        <mxCell id="6FPqPUj_sBxvCww17C0S-10" value="Publicacion" style="rounded=0;whiteSpace=wrap;html=1;" parent="1" vertex="1">
          <mxGeometry x="-90" y="290" width="120" height="60" as="geometry" />
        </mxCell>
        <mxCell id="U7X3H4KhmSKf84ZxSzol-15" style="edgeStyle=orthogonalEdgeStyle;rounded=0;orthogonalLoop=1;jettySize=auto;html=1;entryX=0;entryY=0.5;entryDx=0;entryDy=0;endArrow=none;endFill=0;" edge="1" parent="1" source="6FPqPUj_sBxvCww17C0S-11" target="U7X3H4KhmSKf84ZxSzol-14">
          <mxGeometry relative="1" as="geometry" />
        </mxCell>
        <mxCell id="6FPqPUj_sBxvCww17C0S-11" value="Calificacion" style="rounded=0;whiteSpace=wrap;html=1;" parent="1" vertex="1">
          <mxGeometry x="541" y="305" width="120" height="60" as="geometry" />
        </mxCell>
        <mxCell id="6FPqPUj_sBxvCww17C0S-12" value="Tiene" style="rhombus;whiteSpace=wrap;html=1;" parent="1" vertex="1">
          <mxGeometry x="390" y="305" width="61" height="60" as="geometry" />
        </mxCell>
        <mxCell id="6FPqPUj_sBxvCww17C0S-13" value="Postea" style="rhombus;whiteSpace=wrap;html=1;" parent="1" vertex="1">
          <mxGeometry x="-60.5" y="190" width="61" height="60" as="geometry" />
        </mxCell>
        <mxCell id="6FPqPUj_sBxvCww17C0S-15" value="" style="endArrow=none;html=1;rounded=0;" parent="1" source="6FPqPUj_sBxvCww17C0S-10" target="6FPqPUj_sBxvCww17C0S-13" edge="1">
          <mxGeometry width="50" height="50" relative="1" as="geometry">
            <mxPoint x="150" y="450" as="sourcePoint" />
            <mxPoint x="200" y="400" as="targetPoint" />
          </mxGeometry>
        </mxCell>
        <mxCell id="6FPqPUj_sBxvCww17C0S-17" value="Cita" style="rhombus;whiteSpace=wrap;html=1;" parent="1" vertex="1">
          <mxGeometry x="163.75" y="285" width="74.5" height="70" as="geometry" />
        </mxCell>
        <mxCell id="6FPqPUj_sBxvCww17C0S-18" value="" style="endArrow=none;html=1;rounded=0;exitX=0.75;exitY=0;exitDx=0;exitDy=0;" parent="1" source="k91mETmsHKKL200AIrwe-1" target="k91mETmsHKKL200AIrwe-6" edge="1">
          <mxGeometry width="50" height="50" relative="1" as="geometry">
            <mxPoint x="240" y="120" as="sourcePoint" />
            <mxPoint x="290" y="70" as="targetPoint" />
            <Array as="points">
              <mxPoint x="230" y="30" />
            </Array>
          </mxGeometry>
        </mxCell>
        <mxCell id="6FPqPUj_sBxvCww17C0S-19" value="" style="endArrow=none;html=1;rounded=0;entryX=0.5;entryY=1;entryDx=0;entryDy=0;exitX=1;exitY=0;exitDx=0;exitDy=0;" parent="1" source="k91mETmsHKKL200AIrwe-1" target="k91mETmsHKKL200AIrwe-6" edge="1">
          <mxGeometry width="50" height="50" relative="1" as="geometry">
            <mxPoint x="230" y="310" as="sourcePoint" />
            <mxPoint x="280" y="260" as="targetPoint" />
            <Array as="points">
              <mxPoint x="260" y="100" />
              <mxPoint x="291" y="100" />
            </Array>
          </mxGeometry>
        </mxCell>
        <mxCell id="6FPqPUj_sBxvCww17C0S-21" value="" style="endArrow=none;html=1;rounded=0;exitX=0.5;exitY=0;exitDx=0;exitDy=0;entryX=0;entryY=0.5;entryDx=0;entryDy=0;" parent="1" source="6FPqPUj_sBxvCww17C0S-13" target="6FPqPUj_sBxvCww17C0S-24" edge="1">
          <mxGeometry width="50" height="50" relative="1" as="geometry">
            <mxPoint x="-40" y="180" as="sourcePoint" />
            <mxPoint x="120" y="150" as="targetPoint" />
            <Array as="points">
              <mxPoint x="-30" y="165" />
            </Array>
          </mxGeometry>
        </mxCell>
        <mxCell id="6FPqPUj_sBxvCww17C0S-22" value="" style="endArrow=none;html=1;rounded=0;entryX=0.5;entryY=1;entryDx=0;entryDy=0;exitX=0.5;exitY=0;exitDx=0;exitDy=0;" parent="1" source="6FPqPUj_sBxvCww17C0S-17" target="k91mETmsHKKL200AIrwe-1" edge="1">
          <mxGeometry width="50" height="50" relative="1" as="geometry">
            <mxPoint x="160" y="300" as="sourcePoint" />
            <mxPoint x="210" y="250" as="targetPoint" />
          </mxGeometry>
        </mxCell>
        <mxCell id="6FPqPUj_sBxvCww17C0S-23" value="" style="endArrow=none;html=1;rounded=0;entryX=0;entryY=0.5;entryDx=0;entryDy=0;exitX=1;exitY=0.5;exitDx=0;exitDy=0;" parent="1" source="6FPqPUj_sBxvCww17C0S-10" target="6FPqPUj_sBxvCww17C0S-17" edge="1">
          <mxGeometry width="50" height="50" relative="1" as="geometry">
            <mxPoint x="40" y="370" as="sourcePoint" />
            <mxPoint x="90" y="320" as="targetPoint" />
          </mxGeometry>
        </mxCell>
        <mxCell id="6FPqPUj_sBxvCww17C0S-26" value="" style="endArrow=none;html=1;rounded=0;entryX=1;entryY=0.75;entryDx=0;entryDy=0;exitX=0;exitY=0.5;exitDx=0;exitDy=0;" parent="1" source="6FPqPUj_sBxvCww17C0S-12" target="6FPqPUj_sBxvCww17C0S-25" edge="1">
          <mxGeometry width="50" height="50" relative="1" as="geometry">
            <mxPoint x="370" y="450" as="sourcePoint" />
            <mxPoint x="420" y="400" as="targetPoint" />
          </mxGeometry>
        </mxCell>
        <mxCell id="6FPqPUj_sBxvCww17C0S-27" value="" style="endArrow=none;html=1;rounded=0;entryX=0;entryY=0.5;entryDx=0;entryDy=0;exitX=1;exitY=0.5;exitDx=0;exitDy=0;" parent="1" source="6FPqPUj_sBxvCww17C0S-12" target="6FPqPUj_sBxvCww17C0S-11" edge="1">
          <mxGeometry width="50" height="50" relative="1" as="geometry">
            <mxPoint x="470" y="440" as="sourcePoint" />
            <mxPoint x="520" y="390" as="targetPoint" />
          </mxGeometry>
        </mxCell>
        <mxCell id="6FPqPUj_sBxvCww17C0S-28" value="Tiene" style="rhombus;whiteSpace=wrap;html=1;" parent="1" vertex="1">
          <mxGeometry x="-35" y="5" width="50" height="50" as="geometry" />
        </mxCell>
        <mxCell id="6FPqPUj_sBxvCww17C0S-29" value="" style="endArrow=none;html=1;rounded=0;exitX=0.5;exitY=0;exitDx=0;exitDy=0;entryX=0;entryY=0.5;entryDx=0;entryDy=0;" parent="1" source="6FPqPUj_sBxvCww17C0S-28" target="6FPqPUj_sBxvCww17C0S-1" edge="1">
          <mxGeometry width="50" height="50" relative="1" as="geometry">
            <mxPoint x="-30" y="-40" as="sourcePoint" />
            <mxPoint x="20" y="-90" as="targetPoint" />
            <Array as="points">
              <mxPoint x="-10" y="-80" />
            </Array>
          </mxGeometry>
        </mxCell>
        <mxCell id="6FPqPUj_sBxvCww17C0S-30" value="" style="endArrow=none;html=1;rounded=0;entryX=0.5;entryY=1;entryDx=0;entryDy=0;exitX=0.25;exitY=0;exitDx=0;exitDy=0;" parent="1" source="6FPqPUj_sBxvCww17C0S-25" target="6FPqPUj_sBxvCww17C0S-28" edge="1">
          <mxGeometry width="50" height="50" relative="1" as="geometry">
            <mxPoint x="-110" y="110" as="sourcePoint" />
            <mxPoint x="-60" y="60" as="targetPoint" />
          </mxGeometry>
        </mxCell>
        <mxCell id="U7X3H4KhmSKf84ZxSzol-1" value="IdPersona&lt;br&gt;Nombre&lt;br&gt;Apellido&lt;br&gt;CI&lt;br&gt;FechaNacimiento&lt;br&gt;FechaDesde&lt;br&gt;FechaHasta" style="text;html=1;strokeColor=none;fillColor=none;align=center;verticalAlign=middle;whiteSpace=wrap;rounded=0;" vertex="1" parent="1">
          <mxGeometry x="371" y="60" width="60" height="30" as="geometry" />
        </mxCell>
        <mxCell id="U7X3H4KhmSKf84ZxSzol-2" value="" style="endArrow=none;html=1;rounded=0;entryX=0;entryY=0.5;entryDx=0;entryDy=0;" edge="1" parent="1" source="k91mETmsHKKL200AIrwe-1" target="U7X3H4KhmSKf84ZxSzol-1">
          <mxGeometry width="50" height="50" relative="1" as="geometry">
            <mxPoint x="490" y="120" as="sourcePoint" />
            <mxPoint x="540" y="70" as="targetPoint" />
          </mxGeometry>
        </mxCell>
        <mxCell id="U7X3H4KhmSKf84ZxSzol-3" value="FechaSolicitud&lt;br&gt;FechaDesde&lt;br&gt;FechaHasta" style="text;html=1;strokeColor=none;fillColor=none;align=center;verticalAlign=middle;whiteSpace=wrap;rounded=0;" vertex="1" parent="1">
          <mxGeometry x="261" y="-50" width="60" height="30" as="geometry" />
        </mxCell>
        <mxCell id="U7X3H4KhmSKf84ZxSzol-4" value="" style="endArrow=none;html=1;rounded=0;entryX=0.5;entryY=1;entryDx=0;entryDy=0;" edge="1" parent="1" source="k91mETmsHKKL200AIrwe-6" target="U7X3H4KhmSKf84ZxSzol-3">
          <mxGeometry width="50" height="50" relative="1" as="geometry">
            <mxPoint x="370" y="30" as="sourcePoint" />
            <mxPoint x="420" y="-20" as="targetPoint" />
          </mxGeometry>
        </mxCell>
        <mxCell id="U7X3H4KhmSKf84ZxSzol-5" value="IdHabilidad&lt;br&gt;Nombre" style="text;html=1;strokeColor=none;fillColor=none;align=center;verticalAlign=middle;whiteSpace=wrap;rounded=0;" vertex="1" parent="1">
          <mxGeometry x="610" y="60" width="60" height="30" as="geometry" />
        </mxCell>
        <mxCell id="U7X3H4KhmSKf84ZxSzol-6" value="" style="endArrow=none;html=1;rounded=0;entryX=0.5;entryY=1;entryDx=0;entryDy=0;" edge="1" parent="1" source="k91mETmsHKKL200AIrwe-2" target="U7X3H4KhmSKf84ZxSzol-5">
          <mxGeometry width="50" height="50" relative="1" as="geometry">
            <mxPoint x="780" y="210" as="sourcePoint" />
            <mxPoint x="830" y="160" as="targetPoint" />
          </mxGeometry>
        </mxCell>
        <mxCell id="U7X3H4KhmSKf84ZxSzol-7" value="FechaDesde&lt;br&gt;FechaHasta" style="text;html=1;strokeColor=none;fillColor=none;align=center;verticalAlign=middle;whiteSpace=wrap;rounded=0;" vertex="1" parent="1">
          <mxGeometry x="371" y="230" width="60" height="30" as="geometry" />
        </mxCell>
        <mxCell id="U7X3H4KhmSKf84ZxSzol-8" value="" style="endArrow=none;html=1;rounded=0;entryX=0.5;entryY=0;entryDx=0;entryDy=0;exitX=0.5;exitY=1;exitDx=0;exitDy=0;" edge="1" parent="1" source="k91mETmsHKKL200AIrwe-4" target="U7X3H4KhmSKf84ZxSzol-7">
          <mxGeometry width="50" height="50" relative="1" as="geometry">
            <mxPoint x="480" y="240" as="sourcePoint" />
            <mxPoint x="520" y="230" as="targetPoint" />
          </mxGeometry>
        </mxCell>
        <mxCell id="U7X3H4KhmSKf84ZxSzol-9" value="Text" style="text;html=1;strokeColor=none;fillColor=none;align=center;verticalAlign=middle;whiteSpace=wrap;rounded=0;" vertex="1" parent="1">
          <mxGeometry x="260" y="140" width="60" height="30" as="geometry" />
        </mxCell>
        <mxCell id="U7X3H4KhmSKf84ZxSzol-10" value="IdPublicacion&lt;br&gt;Descrcipcion&lt;br&gt;FechaPublicacion&lt;br&gt;FechaBaja&lt;br&gt;EsPresencial&lt;br&gt;" style="text;html=1;strokeColor=none;fillColor=none;align=center;verticalAlign=middle;whiteSpace=wrap;rounded=0;" vertex="1" parent="1">
          <mxGeometry x="-230" y="305" width="60" height="30" as="geometry" />
        </mxCell>
        <mxCell id="U7X3H4KhmSKf84ZxSzol-11" value="" style="endArrow=none;html=1;rounded=0;entryX=0;entryY=0.5;entryDx=0;entryDy=0;exitX=1;exitY=0.5;exitDx=0;exitDy=0;" edge="1" parent="1" source="U7X3H4KhmSKf84ZxSzol-10" target="6FPqPUj_sBxvCww17C0S-10">
          <mxGeometry width="50" height="50" relative="1" as="geometry">
            <mxPoint x="-260" y="230" as="sourcePoint" />
            <mxPoint x="-210" y="180" as="targetPoint" />
          </mxGeometry>
        </mxCell>
        <mxCell id="U7X3H4KhmSKf84ZxSzol-12" value="FechaSolicitud&lt;br&gt;FechaAprobacion&lt;br&gt;FechaBaja&lt;br&gt;FechaInicio&lt;br&gt;FechaFin" style="text;html=1;strokeColor=none;fillColor=none;align=center;verticalAlign=middle;whiteSpace=wrap;rounded=0;" vertex="1" parent="1">
          <mxGeometry x="-220" y="132" width="60" height="30" as="geometry" />
        </mxCell>
        <mxCell id="U7X3H4KhmSKf84ZxSzol-13" value="" style="endArrow=none;html=1;rounded=0;entryX=0;entryY=0.5;entryDx=0;entryDy=0;" edge="1" parent="1" source="U7X3H4KhmSKf84ZxSzol-12" target="6FPqPUj_sBxvCww17C0S-13">
          <mxGeometry width="50" height="50" relative="1" as="geometry">
            <mxPoint x="-190" y="260" as="sourcePoint" />
            <mxPoint x="-140" y="210" as="targetPoint" />
          </mxGeometry>
        </mxCell>
        <mxCell id="U7X3H4KhmSKf84ZxSzol-14" value="IdClasificacion&lt;br&gt;Numero" style="text;html=1;strokeColor=none;fillColor=none;align=center;verticalAlign=middle;whiteSpace=wrap;rounded=0;" vertex="1" parent="1">
          <mxGeometry x="720" y="320" width="60" height="30" as="geometry" />
        </mxCell>
        <mxCell id="U7X3H4KhmSKf84ZxSzol-16" value="Comentario" style="text;html=1;strokeColor=none;fillColor=none;align=center;verticalAlign=middle;whiteSpace=wrap;rounded=0;" vertex="1" parent="1">
          <mxGeometry x="420" y="400" width="60" height="30" as="geometry" />
        </mxCell>
        <mxCell id="U7X3H4KhmSKf84ZxSzol-17" value="" style="endArrow=none;html=1;rounded=0;entryX=0.5;entryY=1;entryDx=0;entryDy=0;" edge="1" parent="1" source="U7X3H4KhmSKf84ZxSzol-16" target="6FPqPUj_sBxvCww17C0S-12">
          <mxGeometry width="50" height="50" relative="1" as="geometry">
            <mxPoint x="360" y="450" as="sourcePoint" />
            <mxPoint x="410" y="400" as="targetPoint" />
          </mxGeometry>
        </mxCell>
        <mxCell id="U7X3H4KhmSKf84ZxSzol-18" value="IdDireccion&lt;br&gt;Calle&lt;br&gt;Numero&lt;br&gt;Esquina" style="text;html=1;strokeColor=none;fillColor=none;align=center;verticalAlign=middle;whiteSpace=wrap;rounded=0;" vertex="1" parent="1">
          <mxGeometry x="140.5" y="-180" width="60" height="30" as="geometry" />
        </mxCell>
        <mxCell id="U7X3H4KhmSKf84ZxSzol-19" value="" style="endArrow=none;html=1;rounded=0;exitX=0.5;exitY=0;exitDx=0;exitDy=0;" edge="1" parent="1" source="6FPqPUj_sBxvCww17C0S-1" target="U7X3H4KhmSKf84ZxSzol-18">
          <mxGeometry width="50" height="50" relative="1" as="geometry">
            <mxPoint x="200" y="-80" as="sourcePoint" />
            <mxPoint x="250" y="-130" as="targetPoint" />
          </mxGeometry>
        </mxCell>
        <mxCell id="U7X3H4KhmSKf84ZxSzol-20" value="IdBarrio&lt;br&gt;Nombre" style="text;html=1;strokeColor=none;fillColor=none;align=center;verticalAlign=middle;whiteSpace=wrap;rounded=0;" vertex="1" parent="1">
          <mxGeometry x="541" y="-200" width="60" height="30" as="geometry" />
        </mxCell>
        <mxCell id="U7X3H4KhmSKf84ZxSzol-21" value="" style="endArrow=none;html=1;rounded=0;entryX=0.5;entryY=1;entryDx=0;entryDy=0;exitX=0.5;exitY=0;exitDx=0;exitDy=0;" edge="1" parent="1" source="6FPqPUj_sBxvCww17C0S-2" target="U7X3H4KhmSKf84ZxSzol-20">
          <mxGeometry width="50" height="50" relative="1" as="geometry">
            <mxPoint x="700" y="-100" as="sourcePoint" />
            <mxPoint x="750" y="-150" as="targetPoint" />
          </mxGeometry>
        </mxCell>
      </root>
    </mxGraphModel>
  </diagram>
</mxfile>
